# xmcd
# 
# Track frame offsets:
#     183
#     19733
#     31188
#     47388
#     61020
#     76638
#     91548
#     106433
#     122323
#     140493
#     156358
#     168268
# 
# Disc length: 2465
# 
# Revision: 7
# Processed by: cddbd v1.5.2PL0 Copyright (c) Steve Scherf et al.
# Submitted via: fre:ac v1.0.31
# 
DISCID=7b099f0c
DTITLE=Linda Ronstadt - Más Canciones
DYEAR=1991
DGENRE=Ranchero
TTITLE0=Tata Dios
TTITLE1=El Toro Relajo
TTITLE2=Mi Ranchito
TTITLE3=La Mariquita
TTITLE4=Grítenme Piedras Del Campo
TTITLE5=Siempre Hace Frío
TTITLE6=El Crucifijo De Piedra
TTITLE7=Palomita De Ojos Negros
TTITLE8=Pena De Los Amores
TTITLE9=El Camino
TTITLE10=El Gustito
TTITLE11=El Sueño
EXTD=
EXTT0=Valeriano Trejo
EXTT1=Felipe Bermejo
EXTT2=Felipe Valdez Leal
EXTT3=Rubén Fuentes
EXTT4=Cuco Sánchez
EXTT5=Cuco Sánchez
EXTT6=Antonio y Roberto Cantoral
EXTT7=Tomás Méndez
EXTT8=José Luis Almada
EXTT9=Jesús Navarro
EXTT10=José López
EXTT11=Nicandro Castillo
PLAYORDER=
